<?xml version="1.0" encoding="UTF-8" standalone="no"?>
<svg width="32px" height="32px" viewBox="0 0 32 32" version="1.1" xmlns="http://www.w3.org/2000/svg" xmlns:xlink="http://www.w3.org/1999/xlink">
    <!-- Generator: Sketch 40.3 (33839) - http://www.bohemiancoding.com/sketch -->
    <title>Group</title>
    <desc>Created with Sketch.</desc>
    <defs>
        <path d="M16,32 C24.836556,32 32,24.836556 32,16 C32,7.163444 24.836556,0 16,0 C7.163444,0 0,7.163444 0,16 C0,24.836556 7.163444,32 16,32 Z" id="path-1"></path>
        <mask id="mask-2" maskContentUnits="userSpaceOnUse" maskUnits="objectBoundingBox" x="0" y="0" width="32" height="32" fill="white">
            <use xlink:href="#path-1"></use>
        </mask>
        <path d="M1.30375695,4.97442019 C1.13599662,3.88397803 1.90195036,3 3.0085302,3 L10.9914698,3 C12.1007504,3 12.8625319,3.89354265 12.696243,4.97442019 L11.303757,14.0255798 C11.1359966,15.116022 10.1132936,16 9.00189865,16 L4.99810135,16 C3.89458045,16 2.8625319,15.1064574 2.69624305,14.0255798 L1.30375695,4.97442019 Z" id="path-3"></path>
        <mask id="mask-4" maskContentUnits="userSpaceOnUse" maskUnits="objectBoundingBox" x="0" y="0" width="11.4383241" height="13" fill="white">
            <use xlink:href="#path-3"></use>
        </mask>
        <rect id="path-5" x="4" y="0" width="6" height="5" rx="2.5"></rect>
        <mask id="mask-6" maskContentUnits="userSpaceOnUse" maskUnits="objectBoundingBox" x="0" y="0" width="6" height="5" fill="white">
            <use xlink:href="#path-5"></use>
        </mask>
    </defs>
    <g id="Page-1" stroke="none" stroke-width="1" fill="none" fill-rule="evenodd">
        <g id="Artboard" transform="translate(-169.000000, -148.000000)" fill="#FFFFFF">
            <g id="Group" transform="translate(169.000000, 148.000000)">
                <use id="Oval-103-Copy" stroke="#FFFFFF" mask="url(#mask-2)" stroke-width="4" fill-opacity="0" opacity="0.9" xlink:href="#path-1"></use>
                <g id="Rectangle-1222-+-Rectangle-1224-+-Rectangle-1223" transform="translate(9.000000, 8.000000)">
                    <use id="Rectangle-1222" stroke="#FFFFFF" mask="url(#mask-4)" stroke-width="4" fill-opacity="0" xlink:href="#path-3"></use>
                    <use id="Rectangle-1224" stroke="#FFFFFF" mask="url(#mask-6)" stroke-width="4" fill-opacity="0" xlink:href="#path-5"></use>
                    <rect id="Rectangle-1223" x="0" y="3" width="14" height="2" rx="1"></rect>
                </g>
            </g>
        </g>
    </g>
</svg>